<?xml version="1.0" encoding="utf-8"?>
<!-- Generator: Adobe Illustrator 19.0.0, SVG Export Plug-In . SVG Version: 6.00 Build 0)  -->
<svg version="1.1" id="Layer_1" xmlns="http://www.w3.org/2000/svg" xmlns:xlink="http://www.w3.org/1999/xlink" x="0px" y="0px"
	 viewBox="0 0 96 96" style="enable-background:new 0 0 96 96;" xml:space="preserve">
<style type="text/css">
	.st0{fill:#6f6e77;}
</style>
<g id="XMLID_2_">
	<path id="XMLID_4_" class="st0" d="M48,71.6c-0.5,0-1-0.2-1.4-0.6L27.5,52.5c-0.2-0.2-0.5-0.4-0.8-0.8c-0.4-0.4-0.9-1-1.7-2
		c-0.8-1-1.5-2-2.1-3c-0.6-1-1.2-2.3-1.6-3.7c-0.5-1.5-0.7-2.9-0.7-4.2c0-4.5,1.3-8,3.9-10.6s6.2-3.8,10.8-3.8
		c1.3,0,2.6,0.2,3.9,0.7c1.3,0.4,2.5,1,3.7,1.8c1.1,0.7,2.1,1.4,2.9,2.1c0.8,0.7,1.6,1.4,2.3,2.1c0.7-0.7,1.5-1.4,2.3-2.1
		c0.8-0.7,1.8-1.4,2.9-2.1c1.1-0.7,2.4-1.3,3.7-1.8c1.3-0.4,2.6-0.7,3.9-0.7c4.6,0,8.2,1.3,10.8,3.8s3.9,6.1,3.9,10.6
		c0,4.5-2.3,9.1-7,13.8L49.4,71C49,71.4,48.5,71.6,48,71.6z"/>
</g>
</svg>
