<?xml version="1.0" encoding="UTF-8"?>
<svg width="512px" height="512px" viewBox="0 0 512 512" version="1.1" xmlns="http://www.w3.org/2000/svg" xmlns:xlink="http://www.w3.org/1999/xlink">
    <!-- Generator: Sketch 50.2 (55047) - http://www.bohemiancoding.com/sketch -->
    <title>indonesia</title>
    <desc>Created with Sketch.</desc>
    <defs></defs>
    <g id="Page-1" stroke="none" stroke-width="1" fill="none" fill-rule="evenodd">
        <g id="Artboard" transform="translate(-82.000000, -83.000000)" fill-rule="nonzero">
            <g id="indonesia" transform="translate(82.000000, 83.000000)">
                <circle id="Oval" fill="#9BBF90" cx="256" cy="256" r="256"></circle>
                <path d="M299.87,153.503 C299.87,153.503 300.03,152.16 300.127,149.875 C294.544,159.466 266.994,202.862 209.404,233.778 C210.98,238.256 212.13,240.943 212.13,240.943 C222.772,240.943 289.191,240.943 299.87,240.943 C299.87,240.942 326.102,179.734 299.87,153.503 Z" id="Shape" fill="#FCCB5B"></path>
                <g id="Group" transform="translate(200.000000, 98.000000)" fill="#FBB659">
                    <path d="M59.664,142.942 C55.335,134.654 50.517,123.721 47.015,111.032 C36.263,119.578 23.769,128.066 9.404,135.777 C10.98,140.255 12.13,142.941 12.13,142.942 C26.068,142.942 45.691,142.942 59.664,142.942 Z" id="Shape"></path>
                    <path d="M83.764,1.911 C83.764,1.911 83.832,1.558 83.935,0.926 C76.649,9.376 52.046,35.511 12.021,54.358 C12.08,55.088 12.129,55.504 12.129,55.504 C-9.529,77.162 4.575,122.657 10.152,137.866 C73.826,105.116 99.867,55.508 99.869,55.504 C99.87,55.503 103.918,22.064 83.764,1.911 Z" id="Shape"></path>
                </g>
                <path d="M212.13,153.503 C193.171,172.466 200.981,210.812 210.153,235.865 C213.212,234.111 228.521,226.857 247.792,211.76 C241.075,189.096 238.315,160.359 250.543,130.816 C250.543,130.816 250.388,130.387 250.15,129.611 C239.633,137.346 226.894,145.355 212.022,152.358 C212.081,153.087 212.13,153.503 212.13,153.503 Z" id="Shape" fill="#F8A748"></path>
                <path d="M205.138,264.635 C226.904,280.397 227.905,307.917 227.905,307.917 L256,307.917 L284.095,307.917 C284.095,307.917 285.096,280.397 306.862,264.635 C279.29,264.635 221.37,264.635 205.138,264.635 Z" id="Shape" fill="#D8CCBC"></path>
                <path d="M234.125,264.635 L205.138,264.635 C226.904,280.397 227.905,307.917 227.905,307.917 L256,307.917 L256.892,307.917 C256.892,307.917 255.891,280.397 234.125,264.635 Z" id="Shape" fill="#C6B6A5"></path>
                <path d="M156.554,241.149 L168.371,262.47 C169.691,264.851 172.198,266.328 174.92,266.328 L339.253,266.328 C340.071,266.328 340.824,265.884 341.221,265.169 L355.611,239.205 C356.442,237.706 355.358,235.865 353.643,235.865 L159.667,235.865 C156.955,235.865 155.24,238.777 156.554,241.149 Z" id="Shape" fill="#EBE4DD"></path>
                <g id="Group" transform="translate(154.000000, 281.000000)" fill="#CFDDC9">
                    <path d="M8.769,41.209 C4.095,41.209 0.307,37.421 0.307,32.747 L0.307,8.661 C0.307,3.987 4.095,0.199 8.769,0.199 C13.443,0.199 17.231,3.987 17.231,8.661 L17.231,32.747 C17.231,37.421 13.443,41.209 8.769,41.209 Z" id="Shape"></path>
                    <path d="M55.385,41.209 C50.711,41.209 46.923,37.421 46.923,32.747 L46.923,8.661 C46.923,3.987 50.711,0.199 55.385,0.199 C60.059,0.199 63.847,3.987 63.847,8.661 L63.847,32.747 C63.846,37.421 60.058,41.209 55.385,41.209 Z" id="Shape"></path>
                    <path d="M102,44.201 C97.326,44.201 93.538,40.413 93.538,35.739 L93.538,11.653 C93.538,6.979 97.326,3.191 102,3.191 C106.674,3.191 110.462,6.979 110.462,11.653 L110.462,35.739 C110.462,40.413 106.674,44.201 102,44.201 Z" id="Shape"></path>
                    <path d="M148.616,44.201 C143.942,44.201 140.154,40.413 140.154,35.739 L140.154,11.653 C140.154,6.979 143.942,3.191 148.616,3.191 C153.29,3.191 157.078,6.979 157.078,11.653 L157.078,35.739 C157.078,40.413 153.29,44.201 148.616,44.201 Z" id="Shape"></path>
                    <path d="M195.231,44.201 C190.557,44.201 186.769,40.413 186.769,35.739 L186.769,11.653 C186.769,6.979 190.557,3.191 195.231,3.191 C199.905,3.191 203.693,6.979 203.693,11.653 L203.693,35.739 C203.693,40.413 199.905,44.201 195.231,44.201 Z" id="Shape"></path>
                </g>
                <path d="M359.708,294.378 L152.292,294.378 C147.618,294.378 143.83,290.59 143.83,285.916 C143.83,281.242 147.618,277.454 152.292,277.454 L359.708,277.454 C364.382,277.454 368.17,281.242 368.17,285.916 C368.17,290.59 364.382,294.378 359.708,294.378 Z" id="Shape" fill="#E1F4F9"></path>
                <path d="M162.769,340.604 C174.428,342.892 183.548,349.066 190.526,356.281 C203.453,369.647 209.94,387.973 209.009,406.544 L203.989,506.707 C220.784,510.174 238.178,512 256,512 C273.822,512 291.216,510.174 308.012,506.708 L302.991,406.545 C302.06,387.974 308.547,369.647 321.474,356.282 C328.453,349.067 337.573,342.893 349.231,340.604 C343.97,340.604 168.024,340.604 162.769,340.604 Z" id="Shape" fill="#D8CCBC"></path>
                <path d="M203.989,506.708 C212.884,508.544 221.952,509.905 231.158,510.793 L235.73,407.807 C237.044,378.226 223.623,352.945 205.809,340.605 L162.769,340.605 C174.428,342.893 183.548,349.067 190.526,356.282 C203.453,369.648 209.94,387.974 209.009,406.545 L203.989,506.708 Z" id="Shape" fill="#C6B6A5"></path>
                <path d="M144.44,306.789 C144.363,307.252 144.378,307.728 144.513,308.186 L154.266,341.36 C154.659,342.696 155.884,343.613 157.277,343.613 L172.416,343.613 C214.861,343.613 296.851,343.613 339.585,343.613 L354.724,343.613 C356.116,343.613 357.342,342.696 357.735,341.36 L367.488,308.186 C367.623,307.728 367.637,307.251 367.561,306.789 L144.44,306.789 Z" id="Shape" fill="#EBE4DD"></path>
                <g id="Group" transform="translate(144.000000, 235.000000)" fill="#D8CCBC">
                    <path d="M78.328,27.47 L66.511,6.149 C65.196,3.777 66.911,0.865 69.623,0.865 L15.667,0.865 C12.955,0.865 11.24,3.777 12.554,6.149 L24.371,27.47 C25.69,29.851 28.198,31.328 30.92,31.328 L84.877,31.328 C82.155,31.328 79.648,29.85 78.328,27.47 Z" id="Shape"></path>
                    <path d="M64.223,106.36 C54.16,71.699 54.165,73.189 54.397,71.789 L0.44,71.789 C0.363,72.252 0.377,72.728 0.513,73.186 L10.265,106.36 C10.658,107.696 11.884,108.613 13.276,108.613 L28.416,108.613 L67.233,108.613 C65.841,108.613 64.615,107.696 64.223,106.36 Z" id="Shape"></path>
                </g>
                <path d="M278.982,49.457 C266.365,79.751 235.966,94.615 227.936,98.095 C228.11,99.255 228.236,99.91 228.236,99.91 C208.083,120.063 212.13,153.502 212.13,153.502 C258.79,132.221 283.764,99.91 283.764,99.91 C283.764,99.91 289.035,72.946 278.982,49.457 Z" id="Shape" fill="#FCCB5B"></path>
                <g id="Group" transform="translate(211.000000, 0.000000)" fill="#FBB659">
                    <path d="M42.413,84.85 C42.413,84.85 41.961,84.376 41.298,83.384 C30.912,91.592 21.024,96.323 16.935,98.095 C16.936,98.104 16.938,98.113 16.939,98.122 C17.08,99.062 17.189,99.659 17.222,99.843 C17.228,99.874 17.235,99.91 17.235,99.91 C17.234,99.911 17.232,99.913 17.231,99.914 C3.919,113.232 -0.471,134.643 1.129,153.502 C14.374,147.462 27.397,139.797 39.539,130.81 L39.54,130.809 C39.494,130.681 31.093,107.632 42.413,84.85 Z" id="Shape"></path>
                    <path d="M48.234,2.525 C47.386,-0.842 42.613,-0.842 41.765,2.525 C38.988,13.558 34.105,28.517 25.951,41.806 C10.72,66.627 17.235,99.911 17.235,99.911 C17.235,99.911 56.481,85.212 67.811,49.046 C63.664,39.542 55.311,30.644 48.234,2.525 Z" id="Shape"></path>
                </g>
                <path d="M236.952,41.806 C221.721,66.627 228.236,99.909 228.236,99.911 C228.241,99.909 240.578,95.286 253.413,84.853 C253.414,84.852 253.414,84.852 253.414,84.851 C253.414,84.851 241,71.883 250.645,38.74 C254.5,25.492 255.978,11.753 256.364,0.028 C254.725,-0.143 253.196,0.838 252.77,2.514 C252.769,2.517 252.769,2.519 252.768,2.521 C252.768,2.522 252.768,2.523 252.768,2.523 C252.767,2.525 252.767,2.525 252.766,2.526 C246.397,27.854 236.343,42.798 236.952,41.806 Z" id="Shape" fill="#F8A748"></path>
                <g id="Group" transform="translate(285.000000, 186.000000)" fill="#FAD697">
                    <circle id="Oval" cx="12.09" cy="8.83" r="8.353"></circle>
                    <circle id="Oval" cx="4.56" cy="26.09" r="4.481"></circle>
                </g>
                <g id="Group" transform="translate(1.000000, 92.000000)" fill="#CFDDC9">
                    <path d="M148.162,53.479 L74.308,53.479 C66.95,53.479 60.985,47.514 60.985,40.156 C60.985,32.798 66.95,26.833 74.308,26.833 L105.162,26.833 C112.52,26.833 118.485,20.868 118.485,13.51 C118.485,6.152 112.52,0.187 105.162,0.187 L58.282,0.187 C27.422,37.206 6.822,83.068 0.827,133.417 L126.163,133.417 C133.521,133.417 139.486,127.452 139.486,120.094 C139.486,112.736 133.521,106.771 126.163,106.771 L104.809,106.771 C97.451,106.771 91.486,100.806 91.486,93.448 C91.486,86.09 97.451,80.125 104.809,80.125 L148.163,80.125 C155.521,80.125 161.486,74.16 161.486,66.802 C161.485,59.444 155.52,53.479 148.162,53.479 Z" id="Shape"></path>
                    <path d="M492.011,260.884 L484.546,260.884 L470.692,260.884 C463.334,260.884 457.369,254.919 457.369,247.561 C457.369,240.203 451.404,234.238 444.046,234.238 L392.068,234.238 C384.894,234.238 378.721,239.751 378.384,246.917 C378.024,254.568 384.12,260.884 391.692,260.884 L412.67,260.884 C419.844,260.884 426.017,266.397 426.354,273.563 C426.714,281.214 420.618,287.53 413.046,287.53 L363.068,287.53 C355.894,287.53 349.721,293.043 349.384,300.209 C349.024,307.86 355.12,314.176 362.692,314.176 L462.324,314.176 C474.228,297.772 484.229,279.901 492.011,260.884 Z" id="Shape"></path>
                </g>
            </g>
        </g>
    </g>
</svg>