<?xml version="1.0" encoding="UTF-8"?>
<svg width="512px" height="512px" viewBox="0 0 512 512" version="1.1" xmlns="http://www.w3.org/2000/svg" xmlns:xlink="http://www.w3.org/1999/xlink">
    <!-- Generator: Sketch 50.2 (55047) - http://www.bohemiancoding.com/sketch -->
    <title>merlion</title>
    <desc>Created with Sketch.</desc>
    <defs></defs>
    <g id="Page-1" stroke="none" stroke-width="1" fill="none" fill-rule="evenodd">
        <g id="Artboard" transform="translate(-697.000000, -83.000000)" fill-rule="nonzero">
            <g id="merlion" transform="translate(697.000000, 83.000000)">
                <circle id="Oval" fill="#9BBF90" cx="256" cy="256" r="256"></circle>
                <path d="M174.215,368.469 L154.361,368.469 C147.003,368.469 141.038,374.434 141.038,381.792 C141.038,389.15 147.003,395.115 154.361,395.115 L174.215,395.115 C181.573,395.115 187.538,389.15 187.538,381.792 C187.538,374.434 181.573,368.469 174.215,368.469 Z" id="Shape" fill="#CFDDC9"></path>
                <path d="M229.537,378.237 C229.537,378.237 256.704,397.737 270.704,361.07 C284.704,324.403 244.037,286.987 244.037,286.987 L275.037,255.237 L364.537,274.076 C364.537,274.076 389.37,351.07 352.037,421.737 C314.704,492.404 192.037,480.737 174.037,400.237 L229.537,378.237 Z" id="Shape" fill="#EDEFEF"></path>
                <g id="Group" transform="translate(229.000000, 164.000000)" fill="#E0E2E2">
                    <path d="M15.038,122.987 C15.038,122.987 55.705,160.404 41.705,197.07 C27.705,233.737 0.538,214.237 0.538,214.237 C30.861,250.999 83.081,217.543 83.081,173.543 C83.081,129.543 53.067,92.717 53.067,92.717 L46.038,91.237 L15.038,122.987 Z" id="Shape"></path>
                    <path d="M160.69,100.686 C143.44,73.992 133.317,44.898 128.733,29.58 C101.616,28.257 63.248,22.178 37.938,0.343 C37.78,0.964 37.628,1.588 37.484,2.215 C36.226,23.972 38.629,44.356 49.776,60.738 L49.774,60.738 C49.775,60.738 49.775,60.738 49.776,60.738 C49.776,60.738 61.634,71.241 50.009,93.546 C91.101,112.616 136.592,110.87 155.928,108.953 C160.419,108.506 162.927,104.148 160.69,100.686 Z" id="Shape"></path>
                </g>
                <path d="M320.114,270.372 C321.753,268.59 322.382,266.097 321.328,263.688 C308.304,233.923 301.89,202.895 298.821,182.531 C288.323,178.624 278.284,173.427 269.593,166.532 C268.605,166.247 267.614,165.956 266.62,165.656 C266.576,165.842 266.528,166.027 266.485,166.214 C265.227,187.971 267.63,208.355 278.777,224.737 C278.777,224.737 290.635,235.24 279.01,257.545 C292.599,263.852 306.667,267.872 320.114,270.372 Z" id="Shape" fill="#CBD0D1"></path>
                <path d="M384.263,189.772 C334.378,122.98 378.846,51.871 329.814,15.737 C294.533,-10.263 254.902,4.421 239.998,10.659 C246.22,9.602 252.49,8.28 258.929,12.737 C298.457,40.096 270.881,105.826 266.692,163.034 C297.238,196.339 356.855,197.787 380.023,196.973 C384.125,196.828 386.521,192.796 384.263,189.772 Z" id="Shape" fill="#EDEFEF"></path>
                <path d="M276.364,5.286 C272.984,3.204 269.094,2.561 266.229,2.561 C254.727,4.29 245.736,8.256 239.996,10.658 C246.218,9.601 252.488,8.279 258.927,12.736 C298.455,40.095 270.879,105.825 266.69,163.033 C275.401,172.531 286.48,179.431 298.4,184.433 C301.339,114.396 326.036,35.881 276.364,5.286 Z" id="Shape" fill="#E0E2E2"></path>
                <path d="M263.538,12.737 C245.861,-1.139 225.371,21.07 225.371,21.07 C225.38,21.083 225.389,21.096 225.397,21.109 C265.649,22.649 253.961,70.457 250.038,95.07 C247.12,113.372 223.205,138.093 203.982,145.168 C191.006,160.801 187.538,173.737 187.538,173.737 C241.538,181.237 239.038,238.737 239.038,238.737 C256.538,221.237 281.038,224.737 281.038,224.737 C245.038,164.737 312.371,51.07 263.538,12.737 Z" id="Shape" fill="#EDEFEF"></path>
                <path d="M203.981,145.167 C191.005,160.8 187.537,173.736 187.537,173.736 C201.59,175.688 211.81,181.03 219.25,187.86 C225.809,159.905 239.033,130.507 247.396,103.632 C240.063,120.373 220.33,139.151 203.981,145.167 Z" id="Shape" fill="#E0E2E2"></path>
                <path d="M225.371,21.07 L194.901,36.98 C192.914,38.017 191.866,40.254 192.34,42.445 L193.01,45.544 C193.288,46.829 192.382,48.068 191.072,48.183 C184.455,48.767 166.193,50.746 157.09,55.43 C153.524,57.265 151.753,61.363 152.855,65.219 L154.289,70.236 C154.289,70.236 152.86,84.224 162.719,95.625 C163.528,96.56 164.98,96.566 165.814,95.653 C169.628,91.476 181.104,81.573 201.355,85.756 C210.307,87.605 214.929,97.826 209.995,105.521 C205.764,112.119 196.925,117.808 178.607,115.608 C177.776,115.508 177.04,116.145 177.04,116.982 L177.04,121.07 L172.115,124.272 C171.037,124.973 170.558,126.31 170.966,127.529 C172.528,132.2 177.712,143.225 192.541,146.737 C211.541,151.237 248.374,118.07 252.041,95.07 C256.026,70.052 268.037,21.07 225.371,21.07 Z" id="Shape" fill="#EDEFEF"></path>
                <path d="M243.812,452.557 C218.238,441.274 200.77,418.167 195.565,391.703 L174.038,400.237 C187.633,461.039 260.933,482.56 312.081,459.008 C289.475,464.114 264.864,461.845 243.812,452.557 Z" id="Shape" fill="#E0E2E2"></path>
                <path d="M256,512 C316.478,512 372.047,491.015 415.853,455.948 C397.025,445.813 375.534,440.042 352.748,440.043 C330.651,440.043 309.804,445.393 291.43,454.867 C269.148,466.356 242.852,466.356 220.571,454.867 C202.197,445.393 181.35,440.043 159.252,440.043 C136.466,440.043 114.975,445.813 96.147,455.948 C139.954,491.015 195.522,512 256,512 Z" id="Shape" fill="#569FDB"></path>
                <path d="M210.768,480.895 C210.768,470.931 214.339,461.804 220.266,454.714 C201.966,445.337 181.229,440.042 159.253,440.042 C136.467,440.042 114.976,445.812 96.148,455.947 C131.81,484.495 175.267,503.706 222.821,509.865 C215.377,502.466 210.768,492.22 210.768,480.895 Z" id="Shape" fill="#4794C9"></path>
                <path d="M291.43,483.178 C269.148,494.667 242.852,494.667 220.571,483.178 C202.197,473.704 181.35,468.354 159.252,468.354 C146.145,468.354 133.469,470.273 121.479,473.824 C160.569,498.022 206.648,512 256,512 C305.352,512 351.432,498.022 390.521,473.824 C378.53,470.272 365.856,468.354 352.748,468.354 C330.651,468.354 309.804,473.704 291.43,483.178 Z" id="Shape" fill="#77BBE8"></path>
                <path d="M210.768,480.895 C210.768,480.143 210.795,479.398 210.835,478.656 C194.957,472.026 177.535,468.355 159.252,468.355 C146.145,468.355 133.47,470.274 121.481,473.825 C151.67,492.515 186.022,505.091 222.813,509.859 C215.375,502.459 210.768,492.216 210.768,480.895 Z" id="Shape" fill="#57ADDD"></path>
                <path d="M211.623,91.245 C124.118,111.801 56.536,152.725 7.876,192.773 C2.738,212.997 0,234.178 0,256 C0,261.801 0.212,267.551 0.592,273.256 C75.074,159.852 161.496,113.31 213.305,94.579 C212.906,93.398 212.337,92.277 211.623,91.245 Z" id="Shape" fill="#E1F4F9"></path>
                <path d="M212.595,92.884 C212.31,92.317 211.986,91.769 211.623,91.245 C124.118,111.801 56.536,152.725 7.876,192.773 C5.421,202.434 3.522,212.316 2.2,222.379 C81.701,142.319 160.48,107.769 212.595,92.884 Z" id="Shape" fill="#FFFFFF"></path>
                <path d="M207.229,52.364 L218.308,55.029 C223.447,56.265 228.64,53.201 230.043,48.105 L231.342,43.389 C232.255,40.075 228.795,37.256 225.734,38.818 L206.772,48.493 C205.051,49.37 205.352,51.913 207.229,52.364 Z" id="Shape" fill="#E0E2E2"></path>
                <path d="M221.839,47.555 L212.847,45.392 L206.77,48.492 C205.051,49.369 205.352,51.912 207.228,52.363 L218.307,55.028 C223.446,56.264 228.639,53.2 230.042,48.104 L230.86,45.135 C228.53,47.339 225.176,48.358 221.839,47.555 Z" id="Shape" fill="#CBD0D1"></path>
                <g id="Group" transform="translate(152.000000, 49.000000)" fill="#E0E2E2">
                    <path d="M2.288,21.237 C2.288,21.237 0.859,35.225 10.718,46.626 C11.527,47.561 12.979,47.567 13.813,46.654 C15.441,44.871 18.47,42.047 22.976,39.718 C17.153,29.658 18.534,23.595 20.097,20.674 C20.958,19.065 21.23,17.197 20.838,15.415 C18.231,3.57 25.667,0.826 25.667,0.826 L25.666,0.826 C18.355,1.987 10.174,3.788 5.004,6.474 C1.476,8.307 -0.239,12.397 0.853,16.219 L2.288,21.237 Z" id="Shape"></path>
                    <path d="M40.538,97.737 C47.311,99.341 56.35,96.144 65.345,90.342 C44.48,93.673 37.894,74.624 36.118,67.048 C33.27,67.157 30.114,67.029 26.604,66.608 C25.773,66.508 25.038,67.145 25.038,67.982 L25.038,72.07 L20.112,75.272 C19.034,75.973 18.555,77.31 18.963,78.529 C20.524,83.2 25.709,94.225 40.538,97.737 Z" id="Shape"></path>
                    <path d="M213.498,299.348 C209.1,299.348 205.52,295.769 205.52,291.37 C205.52,287.228 202.163,283.87 198.02,283.87 C193.877,283.87 190.52,287.228 190.52,291.37 C190.52,295.769 186.941,299.348 182.542,299.348 C178.142,299.348 174.563,295.769 174.563,291.37 C174.563,287.228 171.206,283.87 167.063,283.87 C162.92,283.87 159.563,287.228 159.563,291.37 C159.563,304.04 169.872,314.348 182.542,314.348 C188.499,314.348 193.933,312.068 198.02,308.337 C202.106,312.068 207.541,314.348 213.498,314.348 C215.28,314.348 217.013,314.137 218.679,313.752 C219.548,307.463 220.09,301.322 220.376,295.394 C218.989,297.755 216.429,299.348 213.498,299.348 Z" id="Shape"></path>
                    <path d="M188.477,329.84 C184.334,329.84 180.977,333.198 180.977,337.34 C180.977,341.739 177.398,345.318 172.999,345.318 C168.6,345.318 165.021,341.739 165.021,337.34 C165.021,333.198 161.663,329.84 157.521,329.84 C153.378,329.84 150.021,333.198 150.021,337.34 C150.021,350.01 160.33,360.318 172.999,360.318 C185.669,360.318 195.977,350.01 195.977,337.34 C195.977,333.198 192.62,329.84 188.477,329.84 Z" id="Shape"></path>
                </g>
                <path d="M281.037,224.737 C281.037,224.737 301.649,245.422 256.667,290.404 C256.667,290.404 300.703,281.737 310.037,321.737 C310.037,321.737 325.689,343.02 305.972,362.737 C305.972,362.737 302.596,378.237 282.067,382.237 C282.067,382.237 271.249,392.579 248.809,383.84 C246.822,383.066 245.909,380.774 246.807,378.84 C250.053,371.845 255.57,355.473 243.396,343.373 C238.628,338.633 230.564,339.439 226.88,345.063 C222.535,351.697 219.789,362.64 229.537,378.237 L174.037,400.237 C174.037,400.237 170.537,367.737 184.037,334.737 C197.231,302.485 196.734,234.254 135.714,185.746 C133.713,184.155 134.127,180.991 136.492,180.021 C143.778,177.031 157.681,172.785 170.537,177.07 C170.537,177.07 176.037,173.737 187.537,173.737 C199.037,173.737 239.037,179.07 239.037,238.737 C239.037,238.737 255.037,218.737 281.037,224.737 Z" id="Shape" fill="#EDEFEF"></path>
                <g id="Group" transform="translate(134.000000, 175.000000)" fill="#E0E2E2">
                    <path d="M60.554,189.811 C61.852,178.937 64.532,166.042 69.839,153.07 C83.033,120.817 82.536,52.586 21.514,4.077 C20.354,3.155 20.029,1.712 20.402,0.467 C13.202,1.132 6.728,3.283 2.494,5.02 C0.129,5.991 -0.286,9.154 1.716,10.745 C62.736,59.253 63.233,127.484 50.039,159.736 C36.539,192.736 40.039,225.236 40.039,225.236 L61.566,216.702 C59.854,208.001 59.464,198.938 60.554,189.811 Z" id="Shape"></path>
                    <path d="M115.451,159.875 C95.538,155.709 90.64,174.346 90.64,174.346 C91.278,172.759 92.049,171.331 92.88,170.063 C96.564,164.439 104.628,163.633 109.396,168.373 C121.571,180.473 116.054,196.845 112.808,203.84 C129.664,198.971 135.669,164.106 115.451,159.875 Z" id="Shape"></path>
                    <path d="M147.038,49.737 C120.954,43.717 105.139,63.669 105.038,63.737 C105.038,36.212 96.524,20.255 86.224,11.045 C102.835,45.488 96.251,77.426 93.767,86.629 C93.491,87.498 93.228,88.381 92.981,89.278 C92.398,91.392 95.127,92.803 96.494,91.088 C106.52,78.512 129.248,54.478 151.655,61.914 C150.981,53.695 147.038,49.737 147.038,49.737 Z" id="Shape"></path>
                </g>
                <g id="Group" transform="translate(0.000000, 84.000000)" fill="#CFDDC9">
                    <path d="M155.662,231.177 L115.46,231.177 L72.308,231.177 C64.95,231.177 58.985,225.212 58.985,217.854 C58.985,210.496 64.95,204.531 72.308,204.531 L93.01,204.531 C100.368,204.531 106.333,198.566 106.333,191.208 C106.333,183.85 100.368,177.885 93.01,177.885 L0.075,177.885 C1.182,226.948 16.094,272.598 41.077,311.115 L96.445,311.115 C103.803,311.115 109.768,305.15 109.768,297.792 C109.768,290.434 103.803,284.469 96.445,284.469 L90.834,284.469 C83.476,284.469 77.511,278.504 77.511,271.146 C77.511,263.788 83.476,257.823 90.834,257.823 L115.46,257.823 L155.662,257.823 C163.02,257.823 168.985,251.858 168.985,244.5 C168.985,237.142 163.02,231.177 155.662,231.177 Z" id="Shape"></path>
                    <path d="M446.063,0.51 L401.598,0.51 C394.24,0.51 388.275,6.475 388.275,13.833 C388.275,21.191 394.24,27.156 401.598,27.156 L422.952,27.156 C430.31,27.156 436.275,33.121 436.275,40.479 C436.275,47.837 430.31,53.802 422.952,53.802 L384.598,53.802 C377.24,53.802 371.275,59.767 371.275,67.125 C371.275,74.483 377.24,80.448 384.598,80.448 L469.452,80.448 C476.81,80.448 482.775,86.413 482.775,93.771 C482.775,101.129 476.81,107.094 469.452,107.094 L422.598,107.094 C415.24,107.094 409.275,113.059 409.275,120.417 C409.275,127.775 415.24,133.74 422.598,133.74 L509.152,133.74 C501.533,82.899 478.965,36.952 446.063,0.51 Z" id="Shape"></path>
                </g>
            </g>
        </g>
    </g>
</svg>